<?xml version="1.0" standalone="no"?><!DOCTYPE svg PUBLIC "-//W3C//DTD SVG 1.1//EN" "http://www.w3.org/Graphics/SVG/1.1/DTD/svg11.dtd"><svg t="1575427140646" class="icon" viewBox="0 0 1024 1024" version="1.1" xmlns="http://www.w3.org/2000/svg" p-id="2937" xmlns:xlink="http://www.w3.org/1999/xlink" width="200" height="200"><defs><style type="text/css"></style></defs><path d="M503.808 222.208c-169.984 0-307.2 128-307.2 286.72 0 51.2 14.336 98.304 38.912 140.288 3.072 5.12 4.096 11.264 2.048 16.384l-28.672 91.136c-5.12 16.384 10.24 30.72 26.624 25.6l90.112-31.744c6.144-2.048 12.288-1.024 17.408 2.048 47.104 27.648 102.4 43.008 161.792 43.008 169.984 0 307.2-128 307.2-286.72-2.048-158.72-139.264-286.72-308.224-286.72zM419.84 635.904c0 6.144-5.12 11.264-11.264 11.264h-54.272c-6.144 0-11.264-5.12-11.264-11.264v-69.632c0-6.144 5.12-11.264 11.264-11.264h54.272c6.144 0 11.264 5.12 11.264 11.264v69.632z m122.88 0c0 6.144-5.12 11.264-11.264 11.264h-54.272c-6.144 0-11.264-5.12-11.264-11.264V474.112c0-6.144 5.12-11.264 11.264-11.264h54.272c6.144 0 11.264 5.12 11.264 11.264v161.792z m122.88 0c0 6.144-5.12 11.264-11.264 11.264h-54.272c-6.144 0-11.264-5.12-11.264-11.264V381.952c0-6.144 5.12-11.264 11.264-11.264h54.272c6.144 0 11.264 5.12 11.264 11.264v253.952z" p-id="2938" fill="#515151"></path></svg>