<?xml version="1.0" standalone="no"?><!DOCTYPE svg PUBLIC "-//W3C//DTD SVG 1.1//EN" "http://www.w3.org/Graphics/SVG/1.1/DTD/svg11.dtd"><svg t="1575432995954" class="icon" viewBox="0 0 1024 1024" version="1.1" xmlns="http://www.w3.org/2000/svg" p-id="2488" xmlns:xlink="http://www.w3.org/1999/xlink" width="200" height="200"><defs><style type="text/css"></style></defs><path d="M512 78.769231C250.092308 78.769231 41.353846 271.753846 41.353846 510.030769c0 74.830769 21.661538 145.723077 57.107692 208.738462 5.907692 9.846154 7.876923 21.661538 3.938462 33.476923l-61.046154 167.384615c-5.907692 15.753846 9.846154 29.538462 25.6 25.6l169.353846-64.984615c9.846154-3.938462 21.661538-1.969231 33.476923 3.938461 70.892308 39.384615 155.569231 63.015385 246.153847 63.015385C773.907692 945.230769 984.615385 754.215385 984.615385 513.969231 982.646154 271.753846 771.938462 78.769231 512 78.769231z m-128 630.153846c0 9.846154-7.876923 17.723077-17.723077 17.723077h-82.707692c-9.846154 0-17.723077-7.876923-17.723077-17.723077v-106.338462c0-9.846154 7.876923-17.723077 17.723077-17.723077h82.707692c9.846154 0 17.723077 7.876923 17.723077 17.723077V708.923077z m189.046154 0c0 9.846154-7.876923 17.723077-17.723077 17.723077H472.615385c-9.846154 0-17.723077-7.876923-17.723077-17.723077V458.830769c0-9.846154 7.876923-17.723077 17.723077-17.723077h82.707692c9.846154 0 17.723077 7.876923 17.723077 17.723077V708.923077z m189.046154 0c0 9.846154-7.876923 17.723077-17.723077 17.723077h-82.707693c-9.846154 0-17.723077-7.876923-17.723076-17.723077V317.046154c0-9.846154 7.876923-17.723077 17.723076-17.723077h82.707693c9.846154 0 17.723077 7.876923 17.723077 17.723077V708.923077z" p-id="2489" fill="#d81e06"></path></svg>