<?xml version="1.0" standalone="no"?><!DOCTYPE svg PUBLIC "-//W3C//DTD SVG 1.1//EN" "http://www.w3.org/Graphics/SVG/1.1/DTD/svg11.dtd"><svg t="1575427246348" class="icon" viewBox="0 0 1024 1024" version="1.1" xmlns="http://www.w3.org/2000/svg" p-id="3405" xmlns:xlink="http://www.w3.org/1999/xlink" width="200" height="200"><defs><style type="text/css"></style></defs><path d="M475.40419 413.915429c0 77.531429 42.73981 151.161905 108.763429 189.927619 66.023619 38.765714 151.454476 38.765714 221.379048 0 69.90019-38.765714 108.739048-112.39619 108.739047-189.927619 0-77.507048-42.715429-151.161905-108.739047-189.927619-66.023619-38.741333-151.478857-38.741333-221.379048 0-69.924571 38.765714-108.763429 112.420571-108.763429 189.927619z" fill="#515151" p-id="3406"></path><path d="M814.616381 729.892571L534.991238 1011.224381c-8.484571 8.508952-16.944762 12.775619-21.187048 12.775619-8.484571 0-12.726857-4.266667-21.187047-8.533333L212.967619 734.134857C43.495619 563.638857 43.495619 295.107048 208.749714 124.586667c169.472-166.229333 436.394667-166.229333 605.866667 0 165.229714 166.253714 165.229714 439.05219 0 605.305904z m-33.889524-562.663619c-76.263619-68.217905-169.472-110.83581-266.922667-110.835809-148.309333 0-283.867429 89.526857-338.96838 230.180571-55.076571 140.653714-25.404952 298.374095 80.505904 404.943238l262.704762 264.289524 262.680381-264.289524c144.042667-144.920381 144.042667-379.367619 0-524.288zM632.441905 533.796571c-33.913905 29.842286-76.263619 51.151238-118.637715 51.151239-93.208381 0-169.472-76.726857-169.472-170.496 0-93.769143 76.263619-170.496 169.472-170.496 93.208381 0 169.472 76.726857 169.472 170.496 0 46.884571-16.944762 89.526857-50.834285 119.344761z m-118.637715-234.422857c-46.616381 0-88.990476 29.817905-105.935238 72.460191-16.944762 42.617905-8.46019 93.769143 25.429334 123.611428 33.889524 29.842286 80.505905 42.617905 122.88 25.575619 42.349714-17.042286 72.021333-59.684571 72.021333-106.569142-4.242286-63.926857-55.076571-115.078095-114.395429-115.078096z" fill="#515151" p-id="3407"></path></svg>