<?xml version="1.0" standalone="no"?><!DOCTYPE svg PUBLIC "-//W3C//DTD SVG 1.1//EN" "http://www.w3.org/Graphics/SVG/1.1/DTD/svg11.dtd"><svg t="1575432915698" class="icon" viewBox="0 0 1093 1024" version="1.1" xmlns="http://www.w3.org/2000/svg" p-id="1585" xmlns:xlink="http://www.w3.org/1999/xlink" width="213.4765625" height="200"><defs><style type="text/css"></style></defs><path d="M1067.690667 419.976533C1002.0864 543.5392 853.265067 669.9008 830.805333 697.480533 808.277333 669.9008 659.524267 543.5392 593.851733 419.976533 575.214933 387.8912 565.8624 347.9552 570.299733 305.288533 578.286933 229.239467 632.2176 167.7312 697.821867 159.607467 752.366933 152.7808 801.5872 181.248 830.805333 227.669333 859.9552 181.248 909.175467 152.7808 963.720533 159.607467 1029.393067 167.7312 1083.255467 229.239467 1091.242667 305.288533 1095.68 347.9552 1086.327467 387.8912 1067.690667 419.976533ZM859.067733 74.752 856.132267 74.752 773.5296 74.752 251.221333 74.752 168.618667 74.752 165.6832 74.752C109.499733 74.752 63.965867 125.1328 63.965867 187.323733L63.965867 699.8016C63.965867 761.992533 109.499733 812.373333 165.6832 812.373333L168.618667 812.373333 251.221333 812.373333 773.5296 812.373333 856.132267 812.373333 859.067733 812.373333C915.2512 812.373333 960.785067 761.992533 960.785067 699.8016L960.785067 667.648C981.4016 646.280533 1003.178667 622.933333 1024.682667 598.084267L1024.682667 724.923733C1024.682667 822.408533 953.275733 888.0128 865.28 888.0128L862.344533 888.0128 162.4064 888.0128 159.470933 888.0128C71.406933 888.0128 0 822.408533 0 724.923733L0 176.5376C0 79.0528 71.406933 0 159.470933 0L162.4064 0 862.344533 0 865.28 0C932.522667 0 989.7984 46.2848 1013.213867 111.616 987.682133 108.612267 963.1744 112.093867 940.6464 120.695467 922.077867 92.910933 892.586667 74.752 859.067733 74.752ZM301.533867 955.323733 652.6976 955.323733C668.8768 955.323733 682.052267 970.5472 682.052267 989.320533L682.052267 990.0032C682.052267 1008.708267 668.8768 1023.931733 652.6976 1023.931733L301.533867 1023.931733C285.354667 1023.931733 272.1792 1008.708267 272.1792 990.0032L272.1792 989.320533C272.1792 970.5472 285.354667 955.323733 301.533867 955.323733Z" p-id="1586" fill="#d81e06"></path></svg>