<?xml version="1.0" standalone="no"?><!DOCTYPE svg PUBLIC "-//W3C//DTD SVG 1.1//EN" "http://www.w3.org/Graphics/SVG/1.1/DTD/svg11.dtd"><svg t="1575427287550" class="icon" viewBox="0 0 1024 1024" version="1.1" xmlns="http://www.w3.org/2000/svg" p-id="4124" xmlns:xlink="http://www.w3.org/1999/xlink" width="200" height="200"><defs><style type="text/css"></style></defs><path d="M743.936 357.376H280.064a34.304 34.304 0 0 1 0-68.608h463.872a34.304 34.304 0 0 1 0 68.608z" fill="#515151" p-id="4125"></path><path d="M555.008 838.656H468.992v-154.624a34.304 34.304 0 0 1 34.304-34.304h17.408a34.304 34.304 0 0 1 34.304 34.304v154.624z" fill="#515151" p-id="4126"></path><path d="M838.144 958.464H185.856a69.0688 69.0688 0 0 1-69.12-68.608v-140.8a71.68 71.68 0 0 1 23.04-51.712 7.0656 7.0656 0 0 1 2.048-1.536L296.96 576.512c-31.232-38.4-51.712-73.728-56.832-144.384-1.536-20.992-11.264-198.656-5.12-272.384A103.2192 103.2192 0 0 1 337.92 65.024h352.256a103.1168 103.1168 0 0 1 102.912 94.208c6.656 72.704-3.072 248.832-5.632 273.92-8.192 80.896-29.696 114.688-57.856 146.432l152.576 116.224a7.0656 7.0656 0 0 0 2.048 1.536 68.4032 68.4032 0 0 1 23.552 51.712v140.8a69.8368 69.8368 0 0 1-69.632 68.608zM185.344 749.056v140.8h652.8l0.512-140.8-180.736-137.728a33.0752 33.0752 0 0 1-13.312-24.576 32.4608 32.4608 0 0 1 9.216-26.112l10.24-11.264c31.744-33.792 48.128-50.688 55.296-123.392 2.56-26.624 11.264-197.12 5.632-261.12a34.0992 34.0992 0 0 0-34.304-31.232H337.92a34.56 34.56 0 0 0-34.304 31.744c-5.632 69.12 4.096 244.224 5.12 262.144 4.608 62.464 20.992 81.92 60.928 128.512l3.072 3.584a34.2528 34.2528 0 0 1 8.192 26.112 33.6896 33.6896 0 0 1-13.312 23.552l-182.272 139.776z" fill="#515151" p-id="4127"></path></svg>